<mxfile host="app.diagrams.net" modified="2022-07-13T07:54:58.586Z" agent="5.0 (Windows NT 10.0; Win64; x64) AppleWebKit/537.36 (KHTML, like Gecko) Chrome/103.0.0.0 Safari/537.36" etag="1AMDeL6Mf7UCRkeQAYOv" version="20.1.1" type="github">
  <diagram id="55vq3gY88Yng1a3PxLXz" name="Page-1">
    <mxGraphModel dx="1422" dy="762" grid="1" gridSize="10" guides="1" tooltips="1" connect="1" arrows="1" fold="1" page="1" pageScale="1" pageWidth="850" pageHeight="1100" math="0" shadow="0">
      <root>
        <mxCell id="0" />
        <mxCell id="1" parent="0" />
        <mxCell id="400GiJAnHUhtsMa5T_SQ-1" value="get list of vtubers" style="rounded=1;whiteSpace=wrap;html=1;" vertex="1" parent="1">
          <mxGeometry x="280" y="100" width="120" height="60" as="geometry" />
        </mxCell>
        <mxCell id="400GiJAnHUhtsMa5T_SQ-2" value="vtuber list&lt;br&gt;(json or sql table" style="shape=cylinder3;whiteSpace=wrap;html=1;boundedLbl=1;backgroundOutline=1;size=15;" vertex="1" parent="1">
          <mxGeometry x="670" y="60" width="60" height="80" as="geometry" />
        </mxCell>
        <mxCell id="400GiJAnHUhtsMa5T_SQ-4" value="" style="endArrow=classic;html=1;rounded=0;exitX=0;exitY=0.5;exitDx=0;exitDy=0;exitPerimeter=0;entryX=1.017;entryY=0.65;entryDx=0;entryDy=0;entryPerimeter=0;edgeStyle=orthogonalEdgeStyle;" edge="1" parent="1" source="400GiJAnHUhtsMa5T_SQ-2" target="400GiJAnHUhtsMa5T_SQ-1">
          <mxGeometry width="50" height="50" relative="1" as="geometry">
            <mxPoint x="400" y="400" as="sourcePoint" />
            <mxPoint x="450" y="350" as="targetPoint" />
          </mxGeometry>
        </mxCell>
        <mxCell id="400GiJAnHUhtsMa5T_SQ-5" value="`https://youtube.com/channel/${ytUserId}/live`" style="rounded=1;html=1;whiteSpace=wrap;" vertex="1" parent="1">
          <mxGeometry x="195" y="300" width="290" height="60" as="geometry" />
        </mxCell>
        <mxCell id="400GiJAnHUhtsMa5T_SQ-6" value="" style="endArrow=classic;html=1;rounded=0;exitX=0.5;exitY=1;exitDx=0;exitDy=0;" edge="1" parent="1" source="400GiJAnHUhtsMa5T_SQ-1" target="400GiJAnHUhtsMa5T_SQ-10">
          <mxGeometry width="50" height="50" relative="1" as="geometry">
            <mxPoint x="400" y="400" as="sourcePoint" />
            <mxPoint x="340" y="210" as="targetPoint" />
          </mxGeometry>
        </mxCell>
        <mxCell id="400GiJAnHUhtsMa5T_SQ-8" value="&lt;font style=&quot;font-size: 11px;&quot;&gt;Is the returned URL a video URL?&lt;/font&gt;" style="rhombus;whiteSpace=wrap;html=1;" vertex="1" parent="1">
          <mxGeometry x="275" y="420" width="130" height="120" as="geometry" />
        </mxCell>
        <mxCell id="400GiJAnHUhtsMa5T_SQ-9" value="" style="endArrow=classic;html=1;rounded=0;fontSize=11;exitX=0.5;exitY=1;exitDx=0;exitDy=0;entryX=0.5;entryY=0;entryDx=0;entryDy=0;" edge="1" parent="1" source="400GiJAnHUhtsMa5T_SQ-5" target="400GiJAnHUhtsMa5T_SQ-8">
          <mxGeometry width="50" height="50" relative="1" as="geometry">
            <mxPoint x="400" y="470" as="sourcePoint" />
            <mxPoint x="450" y="420" as="targetPoint" />
          </mxGeometry>
        </mxCell>
        <mxCell id="400GiJAnHUhtsMa5T_SQ-10" value="Next vtuber" style="rounded=1;whiteSpace=wrap;html=1;fontSize=11;" vertex="1" parent="1">
          <mxGeometry x="280" y="200" width="120" height="60" as="geometry" />
        </mxCell>
        <mxCell id="400GiJAnHUhtsMa5T_SQ-11" value="" style="endArrow=classic;html=1;rounded=0;fontSize=11;exitX=0.5;exitY=1;exitDx=0;exitDy=0;entryX=0.5;entryY=0;entryDx=0;entryDy=0;" edge="1" parent="1" source="400GiJAnHUhtsMa5T_SQ-10" target="400GiJAnHUhtsMa5T_SQ-5">
          <mxGeometry width="50" height="50" relative="1" as="geometry">
            <mxPoint x="400" y="390" as="sourcePoint" />
            <mxPoint x="450" y="340" as="targetPoint" />
          </mxGeometry>
        </mxCell>
        <mxCell id="400GiJAnHUhtsMa5T_SQ-13" value="" style="endArrow=classic;html=1;rounded=0;fontSize=11;exitX=1;exitY=0.5;exitDx=0;exitDy=0;edgeStyle=orthogonalEdgeStyle;entryX=1;entryY=0.75;entryDx=0;entryDy=0;" edge="1" parent="1" source="400GiJAnHUhtsMa5T_SQ-8" target="400GiJAnHUhtsMa5T_SQ-10">
          <mxGeometry relative="1" as="geometry">
            <mxPoint x="500" y="460" as="sourcePoint" />
            <mxPoint x="460" y="200" as="targetPoint" />
            <Array as="points">
              <mxPoint x="550" y="480" />
              <mxPoint x="550" y="245" />
            </Array>
          </mxGeometry>
        </mxCell>
        <mxCell id="400GiJAnHUhtsMa5T_SQ-15" value="No" style="edgeLabel;html=1;align=center;verticalAlign=middle;resizable=0;points=[];fontSize=11;" vertex="1" connectable="0" parent="400GiJAnHUhtsMa5T_SQ-13">
          <mxGeometry x="0.0642" relative="1" as="geometry">
            <mxPoint x="-70" y="145" as="offset" />
          </mxGeometry>
        </mxCell>
        <mxCell id="400GiJAnHUhtsMa5T_SQ-18" value="" style="endArrow=classic;html=1;rounded=0;fontSize=11;exitX=0.5;exitY=1;exitDx=0;exitDy=0;entryX=0.5;entryY=0;entryDx=0;entryDy=0;edgeStyle=orthogonalEdgeStyle;" edge="1" parent="1" source="400GiJAnHUhtsMa5T_SQ-8" target="400GiJAnHUhtsMa5T_SQ-22">
          <mxGeometry relative="1" as="geometry">
            <mxPoint x="370" y="560" as="sourcePoint" />
            <mxPoint x="340" y="620" as="targetPoint" />
          </mxGeometry>
        </mxCell>
        <mxCell id="400GiJAnHUhtsMa5T_SQ-21" value="Yes" style="edgeLabel;html=1;align=center;verticalAlign=middle;resizable=0;points=[];fontSize=11;" vertex="1" connectable="0" parent="400GiJAnHUhtsMa5T_SQ-18">
          <mxGeometry x="-0.2545" y="-1" relative="1" as="geometry">
            <mxPoint x="1" y="19" as="offset" />
          </mxGeometry>
        </mxCell>
        <mxCell id="400GiJAnHUhtsMa5T_SQ-22" value="Is it actually live or a waiting room?" style="rhombus;whiteSpace=wrap;html=1;fontSize=11;" vertex="1" parent="1">
          <mxGeometry x="280" y="630" width="120" height="120" as="geometry" />
        </mxCell>
        <mxCell id="400GiJAnHUhtsMa5T_SQ-23" value="" style="endArrow=classic;html=1;rounded=0;fontSize=11;entryX=1;entryY=0.25;entryDx=0;entryDy=0;edgeStyle=orthogonalEdgeStyle;" edge="1" parent="1" target="400GiJAnHUhtsMa5T_SQ-10">
          <mxGeometry relative="1" as="geometry">
            <mxPoint x="400" y="689.5" as="sourcePoint" />
            <mxPoint x="500" y="689.5" as="targetPoint" />
            <Array as="points">
              <mxPoint x="590" y="690" />
              <mxPoint x="590" y="215" />
            </Array>
          </mxGeometry>
        </mxCell>
        <mxCell id="400GiJAnHUhtsMa5T_SQ-24" value="Waiting Room" style="edgeLabel;resizable=0;html=1;align=center;verticalAlign=middle;fontSize=11;" connectable="0" vertex="1" parent="400GiJAnHUhtsMa5T_SQ-23">
          <mxGeometry relative="1" as="geometry">
            <mxPoint x="-105" y="248" as="offset" />
          </mxGeometry>
        </mxCell>
        <mxCell id="400GiJAnHUhtsMa5T_SQ-25" value="" style="rounded=1;whiteSpace=wrap;html=1;fontSize=11;" vertex="1" parent="1">
          <mxGeometry x="280" y="830" width="120" height="60" as="geometry" />
        </mxCell>
      </root>
    </mxGraphModel>
  </diagram>
</mxfile>
